<svg width="24" height="24" viewBox="0 0 24 24" fill="none" xmlns="http://www.w3.org/2000/svg">
<path d="M12 2.01501C9.34868 2.01766 6.80668 3.07207 4.93189 4.94686C3.0571 6.82165 2.00269 9.36364 2.00005 12.015C1.99606 13.3289 2.25303 14.6306 2.75605 15.8444C3.25906 17.0583 3.99811 18.1601 4.93031 19.0861C5.85624 20.0179 6.95794 20.7566 8.17153 21.2594C9.38511 21.7621 10.6864 22.0189 12 22.015C17.5141 22.015 22 17.529 22 12.0136C22 6.49811 17.5155 2.01501 12 2.01501ZM6.66423 18.7211C7.30123 17.9734 8.0901 17.37 8.97838 16.9508C9.86666 16.5316 10.834 16.3063 11.8161 16.2899C11.8503 16.2913 11.8831 16.2999 11.9173 16.2999H11.9501C11.9815 16.2999 12.01 16.2913 12.0414 16.2899C13.0361 16.3076 14.0152 16.5399 14.9118 16.9711C15.8084 17.4023 16.6012 18.0221 17.236 18.7881C15.7401 19.9551 13.8973 20.589 12 20.5891C10.0605 20.5931 8.17777 19.934 6.66423 18.7211ZM9.08259 12.0064C9.08259 10.4422 10.3545 9.17171 11.9515 9.17171C13.5158 9.17171 14.7863 10.4436 14.7863 12.0407C14.7848 12.7756 14.4978 13.4811 13.9859 14.0084C13.4741 14.5357 12.7773 14.8435 12.0428 14.8668C12.0014 14.8668 11.9629 14.8597 11.9216 14.8597C11.8859 14.8597 11.8517 14.8654 11.8161 14.8668C11.0783 14.838 10.3807 14.5234 9.87063 13.9897C9.36054 13.4559 9.07796 12.7447 9.08259 12.0064Z" fill="white"/>
</svg>
