<svg width="24" height="24" viewBox="0 0 24 24" fill="none" xmlns="http://www.w3.org/2000/svg">
<path d="M11.0909 9.29275H14.7273C14.9684 9.29275 15.1996 9.19697 15.3701 9.02648C15.5406 8.85599 15.6364 8.62476 15.6364 8.38365C15.6364 8.14255 15.5406 7.91132 15.3701 7.74083C15.1996 7.57034 14.9684 7.47456 14.7273 7.47456H12.9091V6.56547C12.9091 6.32437 12.8133 6.09314 12.6428 5.92265C12.4723 5.75216 12.2411 5.65638 12 5.65638C11.7589 5.65638 11.5277 5.75216 11.3572 5.92265C11.1867 6.09314 11.0909 6.32437 11.0909 6.56547V7.47456C10.3676 7.47456 9.6739 7.7619 9.16244 8.27336C8.65098 8.78483 8.36364 9.47852 8.36364 10.2018C8.36364 10.9252 8.65098 11.6188 9.16244 12.1303C9.6739 12.6418 10.3676 12.9291 11.0909 12.9291H12.9091C13.1502 12.9291 13.3814 13.0249 13.5519 13.1954C13.7224 13.3659 13.8182 13.5971 13.8182 13.8382C13.8182 14.0793 13.7224 14.3105 13.5519 14.481C13.3814 14.6515 13.1502 14.7473 12.9091 14.7473H9.27273C9.03162 14.7473 8.80039 14.8431 8.62991 15.0136C8.45942 15.184 8.36364 15.4153 8.36364 15.6564C8.36364 15.8975 8.45942 16.1287 8.62991 16.2992C8.80039 16.4697 9.03162 16.5655 9.27273 16.5655H11.0909V17.4746C11.0909 17.7157 11.1867 17.9469 11.3572 18.1174C11.5277 18.2879 11.7589 18.3837 12 18.3837C12.2411 18.3837 12.4723 18.2879 12.6428 18.1174C12.8133 17.9469 12.9091 17.7157 12.9091 17.4746V16.5655C13.6324 16.5655 14.3261 16.2781 14.8376 15.7667C15.349 15.2552 15.6364 14.5615 15.6364 13.8382C15.6364 13.1149 15.349 12.4212 14.8376 11.9097C14.3261 11.3983 13.6324 11.1109 12.9091 11.1109H11.0909C10.8498 11.1109 10.6186 11.0151 10.4481 10.8447C10.2776 10.6742 10.1818 10.4429 10.1818 10.2018C10.1818 9.96073 10.2776 9.7295 10.4481 9.55901C10.6186 9.38852 10.8498 9.29275 11.0909 9.29275ZM12 2.02002C10.0222 2.02002 8.08879 2.60651 6.4443 3.70532C4.79981 4.80414 3.51809 6.36592 2.76121 8.19318C2.00433 10.0204 1.8063 12.0311 2.19215 13.9709C2.578 15.9107 3.53041 17.6926 4.92894 19.0911C6.32746 20.4896 8.10929 21.442 10.0491 21.8279C11.9889 22.2137 13.9996 22.0157 15.8268 21.2588C17.6541 20.5019 19.2159 19.2202 20.3147 17.5757C21.4135 15.9312 22 13.9978 22 12.02C22 9.36785 20.9464 6.82431 19.0711 4.94895C17.1957 3.07359 14.6522 2.02002 12 2.02002ZM12 20.2018C10.3818 20.2018 8.79992 19.722 7.45443 18.823C6.10894 17.9239 5.06025 16.6461 4.44099 15.1511C3.82173 13.656 3.6597 12.0109 3.9754 10.4238C4.29109 8.83671 5.07034 7.37885 6.21458 6.2346C7.35883 5.09035 8.81669 4.31111 10.4038 3.99541C11.9909 3.67972 13.636 3.84174 15.131 4.461C16.6261 5.08027 17.9039 6.12895 18.8029 7.47444C19.702 8.81994 20.1818 10.4018 20.1818 12.02C20.1818 14.19 19.3198 16.271 17.7854 17.8054C16.251 19.3398 14.17 20.2018 12 20.2018Z" fill="white"/>
</svg>
